:FULLY-SPECIFIED
:FORCE-ALL-JOINTS-BE-3DOF
:DEGREES
2956
root -5.9617 13.2019 -28.8368 161.39 -68.407 -158.226
lfemur -67.6186 42.3739 -6.78655
ltibia 76.4011 -0 0
lfoot -7.72698 -2.41223 0.0178293
ltoes -38.5003 0 0
rfemur -34.1908 -17.3206 23.0903
rtibia 90.0454 -0 0
rfoot -40.2004 -30.0923 0.00941355
rtoes -13.6789 0 0
lowerback 16.2266 5.25385 1.36896
upperback -4.36851 7.55318 1.44002
thorax -14.0546 3.44192 -1.27244
lowerneck -2.82203 9.09264 1.41336
upperneck 7.96939 11.9055 1.74554
head 3.06083 5.99468 0.784613
lclavicle 0 0 0
lhumerus 6.1243 13.9337 82.9054
lradius 90.4653 -0 0
lwrist -17.7007 0 0
lhand -38.4875 28.8075 0.0159736
lfingers 0 0 0
lthumb -11.5089 58.4557 0.0170053
rclavicle 0 0 0
rhumerus -53.8258 50.7998 -107.771
rradius 112.518 -0 0
rwrist -81.2528 0 0
rhand 6.39831 -25.6112 0.0515437
rfingers 0 0 0
rthumb 31.6957 -52.7948 0.0715778
2957
root -5.9247 13.235 -28.8799 160.676 -69.1744 -157.406
lfemur -67.5137 41.6325 -6.91891
ltibia 75.539 -0 0
lfoot -7.67093 -2.09546 0.0248349
ltoes -38.2873 0 0
rfemur -34.229 -16.978 23.3254
rtibia 89.6521 -0 0
rfoot -39.9368 -30.0567 0.0131119
rtoes -13.6158 0 0
lowerback 16.2149 5.2208 1.35926
upperback -4.31889 7.50213 1.42269
thorax -13.9898 3.41997 -1.26974
lowerneck -2.76393 8.86077 1.25556
upperneck 7.76542 11.6017 1.79013
head 2.98664 5.84328 0.821065
lclavicle 0 0 0
lhumerus 6.32935 13.6022 82.8955
lradius 90.2917 -0 0
lwrist -17.3283 0 0
lhand -38.2479 28.874 0.0222491
lfingers 0 0 0
lthumb -11.2777 58.5291 0.023686
rclavicle 0 0 0
rhumerus -51.7011 50.574 -106.196
rradius 112.342 -0 0
rwrist -80.8138 0 0
rhand 5.95338 -25.7259 0.0718056
rfingers 0 0 0
rthumb 31.2691 -52.9611 0.099715
2958
root -5.88537 13.2706 -28.9253 159.829 -70.0096 -156.443
lfemur -67.3977 40.8215 -7.06408
ltibia 74.5957 -0 0
lfoot -7.60956 -1.74885 0.0321452
ltoes -38.0544 0 0
rfemur -34.2691 -16.6028 23.582
rtibia 89.2217 -0 0
rfoot -39.6483 -30.0177 0.0169708
rtoes -13.5468 0 0
lowerback 16.2021 5.18464 1.34865
upperback -4.26459 7.44629 1.40367
thorax -13.9188 3.39594 -1.26682
lowerneck -2.69965 8.60724 1.08273
upperneck 7.54223 11.2694 1.84013
head 2.90538 5.67768 0.861166
lclavicle 0 0 0
lhumerus 6.55345 13.2395 82.8832
lradius 90.1017 -0 0
lwrist -16.9208 0 0
lhand -37.9858 28.9469 0.0287968
lfingers 0 0 0
lthumb -11.0247 58.6095 0.0306565
rclavicle 0 0 0
rhumerus -49.401 50.285 -104.499
rradius 112.15 -0 0
rwrist -80.3335 0 0
rhand 5.46651 -25.8517 0.0929541
rfingers 0 0 0
rthumb 30.8022 -53.1432 0.129083
2959
root -5.84387 13.3085 -28.9729 158.826 -70.9056 -155.315
lfemur -67.271 39.9459 -7.22133
ltibia 73.5769 -0 0
lfoot -7.54323 -1.37448 0.0396234
ltoes -37.8027 0 0
rfemur -34.3103 -16.1975 23.8582
rtibia 88.7568 -0 0
rfoot -39.3368 -29.9756 0.020918
rtoes -13.4722 0 0
lowerback 16.1883 5.14557 1.3372
upperback -4.20592 7.386 1.38308
thorax -13.8421 3.36999 -1.2637
lowerneck -2.62942 8.33364 0.895877
upperneck 7.30112 10.9107 1.89555
head 2.81751 5.4989 0.904727
lclavicle 0 0 0
lhumerus 6.79522 12.8479 82.8684
lradius 89.8965 -0 0
lwrist -16.4808 0 0
lhand -37.7027 29.0256 0.0354942
lfingers 0 0 0
lthumb -10.7514 58.6963 0.0377863
rclavicle 0 0 0
rhumerus -46.9496 49.9246 -102.7
rradius 111.943 -0 0
rwrist -79.8148 0 0
rhand 4.94062 -25.9877 0.114594
rfingers 0 0 0
rthumb 30.2978 -53.3401 0.159134
2960
root -5.80041 13.3484 -29.0225 157.639 -71.8551 -153.995
lfemur -67.1339 39.0105 -7.38993
ltibia 72.4883 -0 0
lfoot -7.47231 -0.974474 0.0471347
ltoes -37.5339 0 0
rfemur -34.3521 -15.7642 24.1524
rtibia 88.2602 -0 0
rfoot -39.004 -29.9305 0.0248824
rtoes -13.3925 0 0
lowerback 16.1735 5.10383 1.32498
upperback -4.14323 7.32161 1.36102
thorax -13.7602 3.34226 -1.2604
lowerneck -2.55343 8.04156 0.695992
upperneck 7.04342 10.5277 1.95639
head 2.72349 5.30794 0.951563
lclavicle 0 0 0
lhumerus 7.05324 12.4296 82.8507
lradius 89.6773 -0 0
lwrist -16.0106 0 0
lhand -37.4003 29.1097 0.0422206
lfingers 0 0 0
lthumb -10.4594 58.789 0.0449468
rclavicle 0 0 0
rhumerus -44.3725 49.4859 -100.822
rradius 111.722 -0 0
rwrist -79.2606 0 0
rhand 4.37865 -26.1332 0.136335
rfingers 0 0 0
rthumb 29.7588 -53.5509 0.189325
2961
root -5.75515 13.3903 -29.0739 156.234 -72.8502 -152.449
lfemur -66.9868 38.0205 -7.56918
ltibia 71.3356 -0 0
lfoot -7.39716 -0.550909 0.0545482
ltoes -37.2492 0 0
rfemur -34.3936 -15.3052 24.4628
rtibia 87.7343 -0 0
rfoot -38.6516 -29.8828 0.0287948
rtoes -13.3082 0 0
lowerback 16.1579 5.05963 1.31205
upperback -4.07682 7.25345 1.33758
thorax -13.6735 3.3129 -1.25696
lowerneck -2.4719 7.73256 0.48407
upperneck 6.77045 10.1225 2.02263
head 2.62381 5.10582 1.00148
lclavicle 0 0 0
lhumerus 7.32615 11.9867 82.8299
lradius 89.4452 -0 0
lwrist -15.5127 0 0
lhand -37.08 29.1988 0.0488587
lfingers 0 0 0
lthumb -10.1503 58.8873 0.0520134
rclavicle 0 0 0
rhumerus -41.6954 48.9629 -98.887
rradius 111.487 -0 0
rwrist -78.6737 0 0
rhand 3.78355 -26.2876 0.157799
rfingers 0 0 0
rthumb 29.188 -53.7743 0.219131
